<?xml version="1.0" encoding="UTF-8" standalone="no"?>
<!DOCTYPE svg PUBLIC "-//W3C//DTD SVG 1.1//EN"
 "http://www.w3.org/Graphics/SVG/1.1/DTD/svg11.dtd">
<!-- Generated by graphviz version 2.38.0 (20140413.2041)
 -->
<!-- Title: G Pages: 1 -->
<svg width="545pt" height="742pt"
 viewBox="0.00 0.00 545.40 742.36" xmlns="http://www.w3.org/2000/svg" xmlns:xlink="http://www.w3.org/1999/xlink">
<g id="graph0" class="graph" transform="scale(1 1) rotate(0) translate(4 738.362)">
<title>G</title>
<polygon fill="white" stroke="none" points="-4,4 -4,-738.362 541.401,-738.362 541.401,4 -4,4"/>
<text text-anchor="middle" x="268.701" y="-13" font-family="Times New Roman,serif" font-size="30.00">YaDiff source code architecture</text>
<!-- merge_yadb -->
<g id="node1" class="node"><title>merge_yadb</title>
<polygon fill="none" stroke="black" points="268.701,-734.544 -0.200727,-602.75 537.602,-602.75 268.701,-734.544"/>
<text text-anchor="start" x="215.201" y="-663.481" font-family="Times New Roman,serif" font-size="14.00">MergeYadb.cpp &#160;&#160;&#160;</text>
<text text-anchor="start" x="181.701" y="-652.681" font-family="Times New Roman,serif" font-size="10.00" fill="darkgreen">Entry_point.exe &#160;&#160;&#160;</text>
<text text-anchor="start" x="181.701" y="-642.681" font-family="Times New Roman,serif" font-size="10.00" fill="darkgreen">In: &#160;new_file_raw, old_file_with_symbols &#160;&#160;&#160;</text>
<text text-anchor="start" x="181.701" y="-632.681" font-family="Times New Roman,serif" font-size="10.00" fill="darkgreen">Out: new_file_with_symbols &#160;&#160;&#160;</text>
<text text-anchor="start" x="263.701" y="-622.681" font-family="Times New Roman,serif" font-size="10.00" fill="darkgreen"> &#160;&#160;&#160;</text>
</g>
<!-- yadiff -->
<g id="node2" class="node"><title>yadiff</title>
<polygon fill="none" stroke="black" points="340.701,-523 196.701,-523 196.701,-471 340.701,-471 340.701,-523"/>
<text text-anchor="start" x="229.201" y="-508.8" font-family="Times New Roman,serif" font-size="14.00">YaDiff.cpp &#160;&#160;&#160;</text>
<text text-anchor="start" x="229.201" y="-498" font-family="Times New Roman,serif" font-size="10.00" fill="darkgreen">Make flatbuffers &#160;&#160;&#160;</text>
<text text-anchor="start" x="229.201" y="-488" font-family="Times New Roman,serif" font-size="10.00" fill="darkgreen">Match flatbuffers &#160;&#160;&#160;</text>
<text text-anchor="start" x="263.701" y="-478" font-family="Times New Roman,serif" font-size="10.00" fill="darkgreen"> &#160;&#160;&#160;</text>
</g>
<!-- merge_yadb&#45;&gt;yadiff -->
<g id="edge1" class="edge"><title>merge_yadb&#45;&gt;yadiff</title>
<path fill="none" stroke="black" d="M268.701,-602.569C268.701,-580.573 268.701,-554.151 268.701,-533.369"/>
<polygon fill="black" stroke="black" points="272.201,-533.368 268.701,-523.368 265.201,-533.368 272.201,-533.368"/>
</g>
<!-- matching -->
<g id="node3" class="node"><title>matching</title>
<polygon fill="none" stroke="black" points="340.701,-435 196.701,-435 196.701,-383 340.701,-383 340.701,-435"/>
<text text-anchor="start" x="222.201" y="-420.8" font-family="Times New Roman,serif" font-size="14.00">Matching.cpp &#160;&#160;&#160;</text>
<text text-anchor="start" x="222.201" y="-410" font-family="Times New Roman,serif" font-size="10.00" fill="darkgreen">Load algos &#160;&#160;&#160;</text>
<text text-anchor="start" x="222.201" y="-400" font-family="Times New Roman,serif" font-size="10.00" fill="darkgreen">Orchestrate algos &#160;&#160;&#160;</text>
<text text-anchor="start" x="263.701" y="-390" font-family="Times New Roman,serif" font-size="10.00" fill="darkgreen"> &#160;&#160;&#160;</text>
</g>
<!-- yadiff&#45;&gt;matching -->
<g id="edge2" class="edge"><title>yadiff&#45;&gt;matching</title>
<path fill="none" stroke="black" d="M268.701,-470.662C268.701,-462.702 268.701,-453.763 268.701,-445.245"/>
<polygon fill="black" stroke="black" points="272.201,-445.157 268.701,-435.157 265.201,-445.157 272.201,-445.157"/>
</g>
<!-- ialgo -->
<g id="node4" class="node"><title>ialgo</title>
<polygon fill="none" stroke="black" points="340.701,-347 196.701,-347 196.701,-305 340.701,-305 340.701,-347"/>
<text text-anchor="start" x="232.201" y="-332.8" font-family="Times New Roman,serif" font-size="14.00">IAlgo.cpp &#160;&#160;&#160;</text>
<text text-anchor="start" x="206.201" y="-322" font-family="Times New Roman,serif" font-size="10.00" fill="darkgreen">Matching algorithm interface &#160;&#160;&#160;</text>
<text text-anchor="start" x="263.701" y="-312" font-family="Times New Roman,serif" font-size="10.00" fill="darkgreen"> &#160;&#160;&#160;</text>
</g>
<!-- matching&#45;&gt;ialgo -->
<g id="edge3" class="edge"><title>matching&#45;&gt;ialgo</title>
<path fill="none" stroke="black" d="M268.701,-382.815C268.701,-374.717 268.701,-365.661 268.701,-357.238"/>
<polygon fill="black" stroke="black" points="272.201,-357.029 268.701,-347.029 265.201,-357.029 272.201,-357.029"/>
</g>
<!-- vectorsign -->
<g id="node5" class="node"><title>vectorsign</title>
<polygon fill="none" stroke="black" points="251.701,-264 107.701,-264 107.701,-212 251.701,-212 251.701,-264"/>
<text text-anchor="start" x="127.701" y="-249.8" font-family="Times New Roman,serif" font-size="14.00">VectorSign.cpp &#160;&#160;&#160;</text>
<text text-anchor="start" x="127.701" y="-239" font-family="Times New Roman,serif" font-size="10.00" fill="darkgreen">Function &#45;&gt; Vector &#160;&#160;&#160;</text>
<text text-anchor="start" x="127.701" y="-229" font-family="Times New Roman,serif" font-size="10.00" fill="darkgreen">+ Ia &#45;&gt; file mapping &#160;&#160;&#160;</text>
<text text-anchor="start" x="174.701" y="-219" font-family="Times New Roman,serif" font-size="10.00" fill="darkgreen"> &#160;&#160;&#160;</text>
</g>
<!-- ialgo&#45;&gt;vectorsign -->
<g id="edge4" class="edge"><title>ialgo&#45;&gt;vectorsign</title>
<path fill="none" stroke="black" d="M247.609,-304.619C237.32,-294.677 224.698,-282.48 213.138,-271.311"/>
<polygon fill="black" stroke="black" points="215.354,-268.585 205.731,-264.153 210.49,-273.619 215.354,-268.585"/>
</g>
<!-- xrefoffsetmatch -->
<g id="node6" class="node"><title>xrefoffsetmatch</title>
<polygon fill="none" stroke="black" points="445.201,-269 270.201,-269 270.201,-207 445.201,-207 445.201,-269"/>
<text text-anchor="start" x="286.701" y="-254.8" font-family="Times New Roman,serif" font-size="14.00">XRefOffsetMatch.cpp &#160;&#160;&#160;</text>
<text text-anchor="start" x="278.201" y="-244" font-family="Times New Roman,serif" font-size="10.00" fill="darkgreen">Two functions called &#160;&#160;&#160;</text>
<text text-anchor="start" x="278.201" y="-234" font-family="Times New Roman,serif" font-size="10.00" fill="darkgreen">By the same functions, at same offset &#160;&#160;&#160;</text>
<text text-anchor="start" x="278.201" y="-224" font-family="Times New Roman,serif" font-size="10.00" fill="darkgreen">Match &#160;&#160;&#160;</text>
<text text-anchor="start" x="352.701" y="-214" font-family="Times New Roman,serif" font-size="10.00" fill="darkgreen"> &#160;&#160;&#160;</text>
</g>
<!-- ialgo&#45;&gt;xrefoffsetmatch -->
<g id="edge7" class="edge"><title>ialgo&#45;&gt;xrefoffsetmatch</title>
<path fill="none" stroke="black" d="M289.792,-304.619C298.644,-296.066 309.223,-285.843 319.367,-276.042"/>
<polygon fill="black" stroke="black" points="321.886,-278.475 326.645,-269.009 317.022,-273.441 321.886,-278.475"/>
</g>
<!-- iarch -->
<g id="node7" class="node"><title>iarch</title>
<polygon fill="none" stroke="black" points="251.701,-171 107.701,-171 107.701,-129 251.701,-129 251.701,-171"/>
<text text-anchor="start" x="143.201" y="-156.8" font-family="Times New Roman,serif" font-size="14.00">IArch.cpp &#160;&#160;&#160;</text>
<text text-anchor="start" x="131.201" y="-146" font-family="Times New Roman,serif" font-size="10.00" fill="darkgreen">Architecture interface &#160;&#160;&#160;</text>
<text text-anchor="start" x="174.701" y="-136" font-family="Times New Roman,serif" font-size="10.00" fill="darkgreen"> &#160;&#160;&#160;</text>
</g>
<!-- vectorsign&#45;&gt;iarch -->
<g id="edge5" class="edge"><title>vectorsign&#45;&gt;iarch</title>
<path fill="none" stroke="black" d="M179.701,-211.662C179.701,-202.202 179.701,-191.361 179.701,-181.485"/>
<polygon fill="black" stroke="black" points="183.201,-181.258 179.701,-171.258 176.201,-181.258 183.201,-181.258"/>
</g>
<!-- arch_x86 -->
<g id="node8" class="node"><title>arch_x86</title>
<polygon fill="none" stroke="black" points="170.701,-93 26.7006,-93 26.7006,-41 170.701,-41 170.701,-93"/>
<text text-anchor="start" x="52.7006" y="-78.8" font-family="Times New Roman,serif" font-size="14.00">ArchX86.cpp &#160;&#160;&#160;</text>
<text text-anchor="start" x="50.2006" y="-68" font-family="Times New Roman,serif" font-size="10.00" fill="darkgreen">Disassemle x86 &#160;&#160;&#160;</text>
<text text-anchor="start" x="50.2006" y="-58" font-family="Times New Roman,serif" font-size="10.00" fill="darkgreen">And map instructions &#160;&#160;&#160;</text>
<text text-anchor="start" x="93.7006" y="-48" font-family="Times New Roman,serif" font-size="10.00" fill="darkgreen"> &#160;&#160;&#160;</text>
</g>
<!-- iarch&#45;&gt;arch_x86 -->
<g id="edge6" class="edge"><title>iarch&#45;&gt;arch_x86</title>
<path fill="none" stroke="black" d="M159.678,-128.978C151.017,-120.316 140.66,-109.96 130.962,-100.261"/>
<polygon fill="black" stroke="black" points="133.259,-97.6082 123.713,-93.012 128.309,-102.558 133.259,-97.6082"/>
</g>
<!-- arch_arm -->
<g id="node9" class="node"><title>arch_arm</title>
<polygon fill="none" stroke="black" points="332.701,-93 188.701,-93 188.701,-41 332.701,-41 332.701,-93"/>
<text text-anchor="start" x="213.701" y="-78.8" font-family="Times New Roman,serif" font-size="14.00">ArchArm.cpp &#160;&#160;&#160;</text>
<text text-anchor="start" x="212.201" y="-68" font-family="Times New Roman,serif" font-size="10.00" fill="darkgreen">Disassemble Arm &#160;&#160;&#160;</text>
<text text-anchor="start" x="212.201" y="-58" font-family="Times New Roman,serif" font-size="10.00" fill="darkgreen">And map instructions &#160;&#160;&#160;</text>
<text text-anchor="start" x="255.701" y="-48" font-family="Times New Roman,serif" font-size="10.00" fill="darkgreen"> &#160;&#160;&#160;</text>
</g>
<!-- iarch&#45;&gt;arch_arm -->
<g id="edge8" class="edge"><title>iarch&#45;&gt;arch_arm</title>
<path fill="none" stroke="black" d="M199.723,-128.978C208.384,-120.316 218.741,-109.96 228.439,-100.261"/>
<polygon fill="black" stroke="black" points="231.092,-102.558 235.689,-93.012 226.143,-97.6082 231.092,-102.558"/>
</g>
</g>
</svg>
