<?xml version="1.0" encoding="UTF-8" standalone="no"?>
<!DOCTYPE svg PUBLIC "-//W3C//DTD SVG 1.1//EN"
 "http://www.w3.org/Graphics/SVG/1.1/DTD/svg11.dtd">
<!-- Generated by graphviz version 2.38.0 (20140413.2041)
 -->
<!-- Title: G Pages: 1 -->
<svg width="1248pt" height="488pt"
 viewBox="0.00 0.00 1247.70 488.40" xmlns="http://www.w3.org/2000/svg" xmlns:xlink="http://www.w3.org/1999/xlink">
<g id="graph0" class="graph" transform="scale(1 1) rotate(0) translate(4 484.397)">
<title>G</title>
<polygon fill="white" stroke="none" points="-4,4 -4,-484.397 1243.7,-484.397 1243.7,4 -4,4"/>
<text text-anchor="middle" x="619.85" y="-7.8" font-family="Times New Roman,serif" font-size="14.00">YaTool dependency architecture</text>
<g id="clust1" class="cluster"><title>clustergit</title>
<polygon fill="none" stroke="black" points="547.701,-272 547.701,-472.397 1031.7,-472.397 1031.7,-272 547.701,-272"/>
<text text-anchor="start" x="771.201" y="-458.197" font-family="Times New Roman,serif" font-size="14.00">LibGit</text>
<text text-anchor="start" x="735.701" y="-447.397" font-family="Times New Roman,serif" font-size="10.00" fill="deeppink">Synchronize 2 different xml</text>
</g>
<!-- swig -->
<g id="node1" class="node"><title>swig</title>
<polygon fill="#c1ffc1" stroke="#c1ffc1" points="281.701,-148 137.701,-148 137.701,-106 281.701,-106 281.701,-148"/>
<text text-anchor="start" x="188.201" y="-133.8" font-family="Times New Roman,serif" font-size="14.00">Swig &#160;&#160;&#160;</text>
<text text-anchor="start" x="148.201" y="-123" font-family="Times New Roman,serif" font-size="10.00" fill="deeppink">Communication with python &#160;&#160;&#160;</text>
<text text-anchor="start" x="204.701" y="-113" font-family="Times New Roman,serif" font-size="10.00" fill="deeppink"> &#160;&#160;&#160;</text>
</g>
<!-- ida -->
<g id="node2" class="node"><title>ida</title>
<polygon fill="#c1ffc1" stroke="#c1ffc1" points="1179.7,-65 1035.7,-65 1035.7,-23 1179.7,-23 1179.7,-65"/>
<text text-anchor="start" x="1090.7" y="-50.8" font-family="Times New Roman,serif" font-size="14.00">Ida &#160;&#160;&#160;</text>
<text text-anchor="start" x="1085.2" y="-40" font-family="Times New Roman,serif" font-size="10.00" fill="deeppink">IDA API &#160;&#160;&#160;</text>
<text text-anchor="start" x="1102.7" y="-30" font-family="Times New Roman,serif" font-size="10.00" fill="deeppink"> &#160;&#160;&#160;</text>
</g>
<!-- libxml -->
<g id="node3" class="node"><title>libxml</title>
<polygon fill="#c1ffc1" stroke="#c1ffc1" points="443.701,-148 299.701,-148 299.701,-106 443.701,-106 443.701,-148"/>
<text text-anchor="start" x="342.701" y="-133.8" font-family="Times New Roman,serif" font-size="14.00">LibXml &#160;&#160;&#160;</text>
<text text-anchor="start" x="309.701" y="-123" font-family="Times New Roman,serif" font-size="10.00" fill="deeppink">Xml file &lt;=&gt; Database buffer &#160;&#160;&#160;</text>
<text text-anchor="start" x="366.701" y="-113" font-family="Times New Roman,serif" font-size="10.00" fill="deeppink"> &#160;&#160;&#160;</text>
</g>
<!-- flatbuffer -->
<g id="node4" class="node"><title>flatbuffer</title>
<polygon fill="#c1ffc1" stroke="#c1ffc1" points="605.701,-148 461.701,-148 461.701,-106 605.701,-106 605.701,-148"/>
<text text-anchor="start" x="516.701" y="-133.8" font-family="Times New Roman,serif" font-size="14.00">Ida &#160;&#160;&#160;</text>
<text text-anchor="start" x="472.201" y="-123" font-family="Times New Roman,serif" font-size="10.00" fill="deeppink">Flat file &lt;=&gt; Database buffer &#160;&#160;&#160;</text>
<text text-anchor="start" x="528.701" y="-113" font-family="Times New Roman,serif" font-size="10.00" fill="deeppink"> &#160;&#160;&#160;</text>
</g>
<!-- farmhash -->
<g id="node5" class="node"><title>farmhash</title>
<polygon fill="#c1ffc1" stroke="#c1ffc1" points="767.701,-148 623.701,-148 623.701,-106 767.701,-106 767.701,-148"/>
<text text-anchor="start" x="660.701" y="-133.8" font-family="Times New Roman,serif" font-size="14.00">Farmhash &#160;&#160;&#160;</text>
<text text-anchor="start" x="642.701" y="-123" font-family="Times New Roman,serif" font-size="10.00" fill="deeppink">Fast hash for signatures &#160;&#160;&#160;</text>
<text text-anchor="start" x="690.701" y="-113" font-family="Times New Roman,serif" font-size="10.00" fill="deeppink"> &#160;&#160;&#160;</text>
</g>
<!-- ssh2 -->
<g id="node6" class="node"><title>ssh2</title>
<polygon fill="#c1ffc1" stroke="#c1ffc1" points="957.201,-148 786.201,-148 786.201,-106 957.201,-106 957.201,-148"/>
<text text-anchor="start" x="850.201" y="-133.8" font-family="Times New Roman,serif" font-size="14.00">Ssh2 &#160;&#160;&#160;</text>
<text text-anchor="start" x="794.201" y="-123" font-family="Times New Roman,serif" font-size="10.00" fill="deeppink">Connect between different computer &#160;&#160;&#160;</text>
<text text-anchor="start" x="866.701" y="-113" font-family="Times New Roman,serif" font-size="10.00" fill="deeppink"> &#160;&#160;&#160;</text>
</g>
<!-- capstone -->
<g id="node7" class="node"><title>capstone</title>
<polygon fill="#c1ffc1" stroke="#c1ffc1" points="419.701,-236 237.701,-236 237.701,-194 419.701,-194 419.701,-236"/>
<text text-anchor="start" x="297.201" y="-221.8" font-family="Times New Roman,serif" font-size="14.00">Captone &#160;&#160;&#160;</text>
<text text-anchor="start" x="245.701" y="-211" font-family="Times New Roman,serif" font-size="10.00" fill="deeppink">Disassemble and categorize instruction &#160;&#160;&#160;</text>
<text text-anchor="start" x="323.701" y="-201" font-family="Times New Roman,serif" font-size="10.00" fill="deeppink"> &#160;&#160;&#160;</text>
</g>
<!-- iconv -->
<g id="node8" class="node"><title>iconv</title>
<polygon fill="#c1ffc1" stroke="#c1ffc1" points="1023.7,-432.397 879.701,-432.397 879.701,-396.397 1023.7,-396.397 1023.7,-432.397"/>
<text text-anchor="middle" x="951.701" y="-410.697" font-family="Times New Roman,serif" font-size="14.00">iconv</text>
</g>
<!-- charset -->
<g id="node9" class="node"><title>charset</title>
<polygon fill="#c1ffc1" stroke="#c1ffc1" points="1023.7,-316 879.701,-316 879.701,-280 1023.7,-280 1023.7,-316"/>
<text text-anchor="middle" x="951.701" y="-294.3" font-family="Times New Roman,serif" font-size="14.00">charset</text>
</g>
<!-- iconv&#45;&gt;charset -->
<g id="edge1" class="edge"><title>iconv&#45;&gt;charset</title>
<path fill="none" stroke="black" d="M951.701,-396.023C951.701,-377.522 951.701,-347.986 951.701,-326.357"/>
<polygon fill="black" stroke="black" points="955.201,-326.163 951.701,-316.163 948.201,-326.163 955.201,-326.163"/>
</g>
<!-- zlib -->
<g id="node10" class="node"><title>zlib</title>
<polygon fill="#c1ffc1" stroke="#c1ffc1" points="861.701,-432.397 717.701,-432.397 717.701,-396.397 861.701,-396.397 861.701,-432.397"/>
<text text-anchor="middle" x="789.701" y="-410.697" font-family="Times New Roman,serif" font-size="14.00">zlib</text>
</g>
<!-- regex -->
<g id="node11" class="node"><title>regex</title>
<polygon fill="#c1ffc1" stroke="#c1ffc1" points="861.701,-316 717.701,-316 717.701,-280 861.701,-280 861.701,-316"/>
<text text-anchor="middle" x="789.701" y="-294.3" font-family="Times New Roman,serif" font-size="14.00">regex</text>
</g>
<!-- zlib&#45;&gt;regex -->
<g id="edge2" class="edge"><title>zlib&#45;&gt;regex</title>
<path fill="none" stroke="black" d="M789.701,-396.023C789.701,-377.522 789.701,-347.986 789.701,-326.357"/>
<polygon fill="black" stroke="black" points="793.201,-326.163 789.701,-316.163 786.201,-326.163 793.201,-326.163"/>
</g>
<!-- yatools -->
<g id="node16" class="node"><title>yatools</title>
<polygon fill="none" stroke="black" points="691.701,-241 437.701,-241 437.701,-189 691.701,-189 691.701,-241"/>
<text text-anchor="start" x="532.701" y="-226.8" font-family="Times New Roman,serif" font-size="14.00">YaTools &#160;&#160;&#160;</text>
<text text-anchor="start" x="445.701" y="-216" font-family="Times New Roman,serif" font-size="10.00" fill="darkgreen">Yatools project container &#160;&#160;&#160;</text>
<text text-anchor="start" x="445.701" y="-206" font-family="Times New Roman,serif" font-size="10.00" fill="darkgreen">Some private code is @YaLibs\YaToolsLib or YaToolsPy &#160;&#160;&#160;</text>
<text text-anchor="start" x="559.701" y="-196" font-family="Times New Roman,serif" font-size="10.00" fill="darkgreen"> &#160;&#160;&#160;</text>
</g>
<!-- regex&#45;&gt;yatools -->
<g id="edge15" class="edge"><title>regex&#45;&gt;yatools</title>
<path fill="none" stroke="black" d="M711.758,-268.941C686.574,-259.874 658.831,-249.887 634.292,-241.053"/>
<polygon fill="black" stroke="black" points="710.678,-272.272 721.272,-272.366 713.049,-265.685 710.678,-272.272"/>
</g>
<!-- httpparser -->
<g id="node12" class="node"><title>httpparser</title>
<polygon fill="#c1ffc1" stroke="#c1ffc1" points="699.701,-432.397 555.701,-432.397 555.701,-396.397 699.701,-396.397 699.701,-432.397"/>
<text text-anchor="middle" x="627.701" y="-410.697" font-family="Times New Roman,serif" font-size="14.00">http&#45;parser</text>
</g>
<!-- winhttp -->
<g id="node13" class="node"><title>winhttp</title>
<polygon fill="#c1ffc1" stroke="#c1ffc1" points="699.701,-316 555.701,-316 555.701,-280 699.701,-280 699.701,-316"/>
<text text-anchor="middle" x="627.701" y="-294.3" font-family="Times New Roman,serif" font-size="14.00">winhttp</text>
</g>
<!-- httpparser&#45;&gt;winhttp -->
<!-- yaidaswig -->
<g id="node14" class="node"><title>yaidaswig</title>
<polygon fill="none" stroke="black" points="268.701,-473.691 -0.200727,-384.75 537.602,-384.75 268.701,-473.691"/>
<text text-anchor="start" x="229.201" y="-421.197" font-family="Times New Roman,serif" font-size="14.00">YaToolsPy &#160;&#160;&#160;</text>
<text text-anchor="start" x="181.701" y="-410.397" font-family="Times New Roman,serif" font-size="10.00" fill="darkgreen">YaIdaSwig project @build/yatools.cmake &#160;&#160;&#160;</text>
<text text-anchor="start" x="263.701" y="-400.397" font-family="Times New Roman,serif" font-size="10.00" fill="darkgreen"> &#160;&#160;&#160;</text>
</g>
<!-- yaidaswig&#45;&gt;swig -->
<g id="edge4" class="edge"><title>yaidaswig&#45;&gt;swig</title>
<path fill="none" stroke="black" d="M256.053,-384.6C248.458,-366.177 239.227,-341.58 233.701,-319 220.07,-263.306 213.93,-196.477 211.362,-158.452"/>
<polygon fill="black" stroke="black" points="214.83,-157.829 210.703,-148.071 207.844,-158.273 214.83,-157.829"/>
</g>
<!-- yadiff -->
<g id="node15" class="node"><title>yadiff</title>
<polygon fill="none" stroke="black" points="414.701,-319 242.701,-319 242.701,-277 414.701,-277 414.701,-319"/>
<text text-anchor="start" x="302.201" y="-304.8" font-family="Times New Roman,serif" font-size="14.00">YaDiff &#160;&#160;&#160;</text>
<text text-anchor="start" x="250.701" y="-294" font-family="Times New Roman,serif" font-size="10.00" fill="darkgreen">YaDiffLib project @YaDiff/YaDiffLib &#160;&#160;&#160;</text>
<text text-anchor="start" x="323.701" y="-284" font-family="Times New Roman,serif" font-size="10.00" fill="darkgreen"> &#160;&#160;&#160;</text>
</g>
<!-- yaidaswig&#45;&gt;yadiff -->
<g id="edge5" class="edge"><title>yaidaswig&#45;&gt;yadiff</title>
<path fill="none" stroke="black" d="M283.841,-384.53C292.863,-367.329 304.283,-345.554 313.343,-328.281"/>
<polygon fill="black" stroke="black" points="316.558,-329.687 318.103,-319.205 310.359,-326.435 316.558,-329.687"/>
</g>
<!-- yaidaswig&#45;&gt;yatools -->
<g id="edge6" class="edge"><title>yaidaswig&#45;&gt;yatools</title>
<path fill="none" stroke="black" d="M318.228,-384.671C348.989,-366.478 389.118,-342.103 423.701,-319 458.081,-296.032 495.85,-268.301 523.638,-247.402"/>
<polygon fill="black" stroke="black" points="526.052,-249.965 531.927,-241.148 521.836,-244.377 526.052,-249.965"/>
</g>
<!-- yadiff&#45;&gt;capstone -->
<g id="edge7" class="edge"><title>yadiff&#45;&gt;capstone</title>
<path fill="none" stroke="black" d="M328.701,-276.978C328.701,-267.729 328.701,-256.546 328.701,-246.296"/>
<polygon fill="black" stroke="black" points="332.201,-246.073 328.701,-236.073 325.201,-246.073 332.201,-246.073"/>
</g>
<!-- yadiff&#45;&gt;yatools -->
<g id="edge8" class="edge"><title>yadiff&#45;&gt;yatools</title>
<path fill="none" stroke="black" d="M387.038,-276.978C415.736,-267.128 450.824,-255.085 482.214,-244.311"/>
<polygon fill="black" stroke="black" points="483.504,-247.569 491.826,-241.012 481.232,-240.948 483.504,-247.569"/>
</g>
<!-- yatools&#45;&gt;swig -->
<g id="edge10" class="edge"><title>yatools&#45;&gt;swig</title>
<path fill="none" stroke="black" d="M442.457,-188.984C394.882,-178.675 340.044,-166.085 290.701,-153 288.058,-152.299 285.372,-151.568 282.663,-150.816"/>
<polygon fill="black" stroke="black" points="283.368,-147.377 272.792,-148.009 281.453,-154.11 283.368,-147.377"/>
</g>
<!-- yatools&#45;&gt;libxml -->
<g id="edge11" class="edge"><title>yatools&#45;&gt;libxml</title>
<path fill="none" stroke="black" d="M508.358,-188.894C482.396,-177.325 451.713,-163.653 426.005,-152.198"/>
<polygon fill="black" stroke="black" points="427.336,-148.959 416.777,-148.086 424.487,-155.353 427.336,-148.959"/>
</g>
<!-- yatools&#45;&gt;flatbuffer -->
<g id="edge12" class="edge"><title>yatools&#45;&gt;flatbuffer</title>
<path fill="none" stroke="black" d="M555.567,-188.662C552.085,-179.001 548.083,-167.899 544.463,-157.856"/>
<polygon fill="black" stroke="black" points="547.687,-156.479 541.003,-148.258 541.101,-158.853 547.687,-156.479"/>
</g>
<!-- yatools&#45;&gt;farmhash -->
<g id="edge14" class="edge"><title>yatools&#45;&gt;farmhash</title>
<path fill="none" stroke="black" d="M602.943,-188.894C619.793,-177.833 639.571,-164.849 656.526,-153.718"/>
<polygon fill="black" stroke="black" points="658.666,-156.5 665.104,-148.086 654.824,-150.648 658.666,-156.5"/>
</g>
<!-- yatools&#45;&gt;ssh2 -->
<g id="edge13" class="edge"><title>yatools&#45;&gt;ssh2</title>
<path fill="none" stroke="black" d="M654.323,-188.894C697.251,-176.869 748.292,-162.571 790.124,-150.852"/>
<polygon fill="black" stroke="black" points="791.313,-154.154 799.998,-148.086 789.425,-147.413 791.313,-154.154"/>
</g>
<!-- yaida -->
<g id="node17" class="node"><title>yaida</title>
<polygon fill="none" stroke="black" points="1239.7,-153 975.701,-153 975.701,-101 1239.7,-101 1239.7,-153"/>
<text text-anchor="start" x="1083.2" y="-138.8" font-family="Times New Roman,serif" font-size="14.00">YaIda &#160;&#160;&#160;</text>
<text text-anchor="start" x="983.701" y="-128" font-family="Times New Roman,serif" font-size="10.00" fill="darkgreen">YaIda project @YaLibs/YaToolsIDALib &#160;&#160;&#160;</text>
<text text-anchor="start" x="983.701" y="-118" font-family="Times New Roman,serif" font-size="10.00" fill="darkgreen">It contains IdaModel.cpp and aims to communiate with IDA &#160;&#160;&#160;</text>
<text text-anchor="start" x="1102.7" y="-108" font-family="Times New Roman,serif" font-size="10.00" fill="darkgreen"> &#160;&#160;&#160;</text>
</g>
<!-- yatools&#45;&gt;yaida -->
<g id="edge9" class="edge"><title>yatools&#45;&gt;yaida</title>
<path fill="none" stroke="black" d="M692.141,-195.388C768.394,-184.066 867.488,-169.029 965.363,-153.04"/>
<polygon fill="black" stroke="black" points="966.139,-156.459 975.442,-151.389 965.008,-149.551 966.139,-156.459"/>
</g>
<!-- yaida&#45;&gt;ida -->
<g id="edge16" class="edge"><title>yaida&#45;&gt;ida</title>
<path fill="none" stroke="black" d="M1107.7,-100.815C1107.7,-92.717 1107.7,-83.6608 1107.7,-75.2385"/>
<polygon fill="black" stroke="black" points="1111.2,-75.0289 1107.7,-65.029 1104.2,-75.029 1111.2,-75.0289"/>
</g>
</g>
</svg>
